<mxfile host="app.diagrams.net" modified="2022-02-10T22:38:34.642Z" agent="5.0 (Windows NT 10.0; Win64; x64) AppleWebKit/537.36 (KHTML, like Gecko) Chrome/98.0.4758.82 Safari/537.36" etag="WBmcKy6tTNUhEnd3SUbT" version="16.5.5" type="github">
  <diagram name="Page-1" id="edf60f1a-56cd-e834-aa8a-f176f3a09ee4">
    <mxGraphModel dx="1747" dy="579" grid="1" gridSize="10" guides="1" tooltips="1" connect="1" arrows="1" fold="1" page="1" pageScale="1" pageWidth="1100" pageHeight="850" background="none" math="0" shadow="0">
      <root>
        <mxCell id="0" />
        <mxCell id="1" parent="0" />
        <mxCell id="7diuZ4MpowCz5UCA8wbx-1" value="Campus" style="rounded=0;whiteSpace=wrap;html=1;hachureGap=4;" vertex="1" parent="1">
          <mxGeometry x="-900" y="250" width="100" height="40" as="geometry" />
        </mxCell>
        <mxCell id="7diuZ4MpowCz5UCA8wbx-2" value="" style="rhombus;whiteSpace=wrap;html=1;" vertex="1" parent="1">
          <mxGeometry x="-390" y="270" width="80" height="80" as="geometry" />
        </mxCell>
        <mxCell id="7diuZ4MpowCz5UCA8wbx-4" value="M" style="endArrow=none;html=1;rounded=0;exitX=1;exitY=0.5;exitDx=0;exitDy=0;entryX=0.058;entryY=0.483;entryDx=0;entryDy=0;entryPerimeter=0;" edge="1" parent="1" source="7diuZ4MpowCz5UCA8wbx-1" target="7diuZ4MpowCz5UCA8wbx-7">
          <mxGeometry width="50" height="50" relative="1" as="geometry">
            <mxPoint x="-540" y="600" as="sourcePoint" />
            <mxPoint x="-750" y="270" as="targetPoint" />
          </mxGeometry>
        </mxCell>
        <mxCell id="7diuZ4MpowCz5UCA8wbx-7" value="Holds" style="shape=rhombus;double=1;perimeter=rhombusPerimeter;whiteSpace=wrap;html=1;align=center;" vertex="1" parent="1">
          <mxGeometry x="-760" y="240" width="120" height="60" as="geometry" />
        </mxCell>
        <mxCell id="7diuZ4MpowCz5UCA8wbx-9" value="1" style="endArrow=none;html=1;rounded=0;entryX=0;entryY=0.5;entryDx=0;entryDy=0;" edge="1" parent="1" source="7diuZ4MpowCz5UCA8wbx-7" target="7diuZ4MpowCz5UCA8wbx-11">
          <mxGeometry width="50" height="50" relative="1" as="geometry">
            <mxPoint x="-780" y="280" as="sourcePoint" />
            <mxPoint x="-610" y="270" as="targetPoint" />
          </mxGeometry>
        </mxCell>
        <mxCell id="7diuZ4MpowCz5UCA8wbx-11" value="Faculty" style="shape=ext;margin=3;double=1;whiteSpace=wrap;html=1;align=center;" vertex="1" parent="1">
          <mxGeometry x="-600" y="250" width="100" height="40" as="geometry" />
        </mxCell>
        <mxCell id="7diuZ4MpowCz5UCA8wbx-12" value="&lt;u&gt;CID&lt;/u&gt;" style="ellipse;whiteSpace=wrap;html=1;" vertex="1" parent="1">
          <mxGeometry x="-920" y="310" width="60" height="30" as="geometry" />
        </mxCell>
        <mxCell id="7diuZ4MpowCz5UCA8wbx-13" value="" style="endArrow=none;html=1;rounded=0;exitX=0.5;exitY=1;exitDx=0;exitDy=0;entryX=0.5;entryY=0;entryDx=0;entryDy=0;" edge="1" parent="1" source="7diuZ4MpowCz5UCA8wbx-1" target="7diuZ4MpowCz5UCA8wbx-12">
          <mxGeometry width="50" height="50" relative="1" as="geometry">
            <mxPoint x="-600" y="560" as="sourcePoint" />
            <mxPoint x="-608.72" y="621.98" as="targetPoint" />
          </mxGeometry>
        </mxCell>
        <mxCell id="7diuZ4MpowCz5UCA8wbx-14" value="Name" style="ellipse;whiteSpace=wrap;html=1;" vertex="1" parent="1">
          <mxGeometry x="-940" y="180" width="60" height="30" as="geometry" />
        </mxCell>
        <mxCell id="7diuZ4MpowCz5UCA8wbx-15" value="" style="endArrow=none;html=1;rounded=0;exitX=0.25;exitY=0;exitDx=0;exitDy=0;entryX=0.5;entryY=1;entryDx=0;entryDy=0;" edge="1" parent="1" source="7diuZ4MpowCz5UCA8wbx-1" target="7diuZ4MpowCz5UCA8wbx-14">
          <mxGeometry width="50" height="50" relative="1" as="geometry">
            <mxPoint x="-840" y="300" as="sourcePoint" />
            <mxPoint x="-880" y="320" as="targetPoint" />
          </mxGeometry>
        </mxCell>
        <mxCell id="7diuZ4MpowCz5UCA8wbx-16" value="Address" style="ellipse;whiteSpace=wrap;html=1;" vertex="1" parent="1">
          <mxGeometry x="-980" y="255" width="60" height="30" as="geometry" />
        </mxCell>
        <mxCell id="7diuZ4MpowCz5UCA8wbx-17" value="" style="endArrow=none;html=1;rounded=0;exitX=0;exitY=0.5;exitDx=0;exitDy=0;entryX=1;entryY=0.5;entryDx=0;entryDy=0;" edge="1" parent="1" source="7diuZ4MpowCz5UCA8wbx-1" target="7diuZ4MpowCz5UCA8wbx-16">
          <mxGeometry width="50" height="50" relative="1" as="geometry">
            <mxPoint x="-865" y="260" as="sourcePoint" />
            <mxPoint x="-900" y="220" as="targetPoint" />
          </mxGeometry>
        </mxCell>
      </root>
    </mxGraphModel>
  </diagram>
</mxfile>
